<svg width="27" height="34" viewBox="0 0 27 34" fill="none" xmlns="http://www.w3.org/2000/svg">
<path fill-rule="evenodd" clip-rule="evenodd" d="M9.77217 20.2343C10.4199 20.2343 11.0529 20.1713 11.6654 20.051C11.7541 20.3007 11.8776 20.5426 12.037 20.7701L12.3325 21.1916C12.4422 21.348 12.5641 21.4908 12.696 21.6195C12.455 22.46 12.5819 23.3982 13.1228 24.1699L18.7016 32.1286C19.6526 33.4853 21.5234 33.8142 22.8801 32.8632L25.4985 31.0278C26.8552 30.0768 27.1841 28.206 26.2331 26.8493L20.6543 18.8906C20.1099 18.1139 19.264 17.674 18.3856 17.6184C18.3105 17.4539 18.2193 17.2939 18.1118 17.1405L17.8163 16.719C17.7327 16.5998 17.6421 16.4885 17.5453 16.3853C18.7995 14.742 19.5443 12.689 19.5443 10.4621C19.5443 5.06512 15.1692 0.689972 9.77217 0.689972C4.37515 0.689972 0 5.06512 0 10.4621C0 15.8592 4.37515 20.2343 9.77217 20.2343ZM9.77217 16.9769C13.3702 16.9769 16.2869 14.0601 16.2869 10.4621C16.2869 6.86413 13.3702 3.94736 9.77217 3.94736C6.17416 3.94736 3.25739 6.86413 3.25739 10.4621C3.25739 14.0601 6.17416 16.9769 9.77217 16.9769Z" fill="white"/>
</svg>
