<svg width="64" height="64" viewBox="0 0 64 64" fill="none" xmlns="http://www.w3.org/2000/svg">
<path fill-rule="evenodd" clip-rule="evenodd" d="M32 63.2169C47.9984 63.2169 61.1904 51.2013 63.044 35.7021H43.9342C42.3405 40.7762 37.6001 44.4568 32 44.4568C26.3999 44.4568 21.6595 40.7762 20.0658 35.7021H0.955994C2.80958 51.2013 16.0016 63.2169 32 63.2169ZM43.9342 28.1981H63.044C61.1904 12.6989 47.9984 0.683289 32 0.683289C16.0016 0.683289 2.80957 12.6989 0.955994 28.1981H20.0658C21.6595 23.124 26.3999 19.4434 32 19.4434C37.6001 19.4434 42.3405 23.124 43.9342 28.1981ZM32.0001 38.2035C35.4537 38.2035 38.2534 35.4037 38.2534 31.9501C38.2534 28.4965 35.4537 25.6967 32.0001 25.6967C28.5464 25.6967 25.7467 28.4965 25.7467 31.9501C25.7467 35.4037 28.5464 38.2035 32.0001 38.2035Z" fill="white"/>
<path fill-rule="evenodd" clip-rule="evenodd" d="M63.044 28.2761C61.1948 12.7337 48.0014 0.683289 32.0006 0.683289C15.9998 0.683289 2.80643 12.7337 0.957275 28.2761H20.0444C21.6363 23.1745 26.3872 19.4724 32.0006 19.4724C37.614 19.4724 42.365 23.1745 43.9568 28.2761H63.044Z" fill="#FF473C"/>
</svg>
