<svg width="577" height="582" viewBox="0 0 577 582" fill="none" xmlns="http://www.w3.org/2000/svg">
<path fill-rule="evenodd" clip-rule="evenodd" d="M288.492 581.567C437.059 581.567 559.566 469.985 576.779 326.053H399.317C384.517 373.174 340.496 407.353 288.492 407.353C236.487 407.353 192.466 373.174 177.666 326.053H0.204346C17.4174 469.985 139.924 581.567 288.492 581.567ZM399.317 256.368H576.779C559.566 112.436 437.059 0.854431 288.492 0.854431C139.924 0.854431 17.4175 112.436 0.204355 256.368H177.666C192.466 209.248 236.487 175.068 288.492 175.068C340.496 175.068 384.517 209.248 399.317 256.368ZM288.492 349.282C320.564 349.282 346.563 323.283 346.563 291.211C346.563 259.139 320.564 233.139 288.492 233.139C256.42 233.139 230.421 259.139 230.421 291.211C230.421 323.283 256.42 349.282 288.492 349.282Z" fill="#F0F0F0" fill-opacity="0.3"/>
</svg>
