<svg width="77" height="78" viewBox="0 0 77 78" fill="none" xmlns="http://www.w3.org/2000/svg">
<path fill-rule="evenodd" clip-rule="evenodd" d="M38.2284 77.6964C57.9294 77.6964 74.1746 62.8999 76.4572 43.8135H52.9246C50.962 50.062 45.1245 54.5944 38.2283 54.5944C31.3322 54.5944 25.4947 50.062 23.5321 43.8135H-0.000488281C2.28208 62.8999 18.5273 77.6964 38.2284 77.6964ZM52.9246 34.5728H76.4572C74.1746 15.4865 57.9294 0.689941 38.2284 0.689941C18.5273 0.689941 2.28209 15.4865 -0.000487864 34.5728H23.5321C25.4947 28.3243 31.3322 23.7919 38.2283 23.7919C45.1245 23.7919 50.962 28.3243 52.9246 34.5728ZM38.2284 46.8938C42.4814 46.8938 45.9291 43.4461 45.9291 39.1932C45.9291 34.9402 42.4814 31.4925 38.2284 31.4925C33.9755 31.4925 30.5278 34.9402 30.5278 39.1932C30.5278 43.4461 33.9755 46.8938 38.2284 46.8938Z" fill="#F0F0F0" fill-opacity="0.3"/>
</svg>
